<?xml version="1.0" standalone="no"?>
<!DOCTYPE svg PUBLIC "-//W3C//DTD SVG 20010904//EN"
 "http://www.w3.org/TR/2001/REC-SVG-20010904/DTD/svg10.dtd">
<svg version="1.0" xmlns="http://www.w3.org/2000/svg"
 width="4097.000000pt" height="4096.000000pt" viewBox="0 0 4097.000000 4096.000000"
 preserveAspectRatio="xMidYMid meet">

<g transform="translate(0.000000,4096.000000) scale(0.100000,-0.100000)"
fill="#000000" stroke="none">
<path d="M19610 32919 c-1942 -80 -3577 -456 -4975 -1144 -1415 -697 -2498
-1650 -3197 -2815 -122 -202 -274 -488 -312 -585 -20 -49 -54 -126 -76 -170
-51 -104 -371 -1064 -405 -1218 -140 -635 -163 -1593 -59 -2417 69 -551 167
-975 305 -1326 72 -182 381 -765 484 -914 29 -41 87 -131 131 -200 43 -69 115
-169 159 -222 44 -53 96 -122 115 -154 19 -31 80 -104 134 -163 54 -58 128
-142 163 -186 96 -118 287 -318 436 -457 96 -89 136 -133 148 -163 27 -71 47
-91 119 -124 39 -17 74 -31 78 -31 8 0 242 -213 297 -270 202 -212 403 -397
574 -530 82 -63 156 -258 220 -575 44 -218 87 -378 131 -486 41 -101 166 -284
248 -360 143 -136 208 -141 404 -34 161 88 231 148 604 517 l310 308 109 0
108 0 111 -82 c83 -61 213 -183 521 -488 297 -295 451 -439 560 -526 282 -225
535 -394 800 -534 66 -35 194 -109 285 -163 211 -127 324 -183 481 -240 178
-64 273 -81 434 -74 97 4 154 12 225 31 215 59 413 133 665 249 66 30 201 83
300 118 99 34 223 80 275 102 390 161 378 159 490 112 96 -39 90 -39 575 -5
113 8 222 24 370 55 304 62 318 63 473 24 48 -13 64 -25 161 -124 96 -98 114
-122 160 -215 128 -260 103 -468 -81 -665 -70 -75 -201 -171 -298 -220 -30
-15 -62 -33 -70 -41 -8 -7 -43 -17 -77 -23 -34 -5 -70 -14 -80 -19 -38 -20
-362 -112 -463 -131 -603 -114 -1511 -134 -2040 -45 -307 52 -684 183 -1025
357 -158 81 -598 372 -800 528 -288 223 -389 263 -820 330 -196 31 -577 36
-1017 14 -319 -15 -539 -16 -2273 -11 -1056 3 -2059 9 -2229 12 -336 6 -827
-15 -946 -40 -88 -19 -168 -50 -225 -88 -72 -48 -162 -135 -205 -198 -43 -63
-103 -208 -125 -303 -19 -81 -19 -264 0 -364 8 -43 29 -171 45 -284 20 -135
57 -317 106 -520 111 -464 138 -551 286 -924 120 -303 175 -417 310 -646 363
-613 841 -1169 1423 -1655 896 -747 2173 -1426 3400 -1807 1060 -330 2279
-536 3645 -617 276 -16 614 -30 745 -30 66 0 143 -3 171 -6 l52 -7 42 -141
c23 -77 52 -161 64 -186 13 -25 31 -68 40 -97 18 -55 38 -78 59 -70 7 3 39 48
71 101 53 88 59 104 66 174 9 88 20 120 47 144 19 17 22 16 79 -26 32 -24 73
-48 90 -53 73 -20 220 -222 377 -518 102 -192 117 -218 401 -715 347 -605 480
-798 730 -1065 350 -373 561 -557 736 -643 49 -24 66 -27 160 -27 141 0 159
10 293 167 109 129 174 193 271 268 82 63 327 319 440 458 181 225 355 496
514 803 166 317 472 1038 472 1109 0 19 28 55 37 47 8 -9 32 -258 44 -463 7
-133 9 -319 5 -509 -6 -322 3 -591 30 -883 17 -170 25 -208 38 -164 3 9 19 67
36 127 18 61 105 351 195 645 200 655 280 874 439 1200 104 216 146 290 164
290 41 0 89 51 127 133 20 45 41 91 46 102 6 11 53 74 105 140 107 134 131
175 175 307 38 113 59 208 59 273 0 69 25 157 50 177 21 17 23 16 51 -4 16
-12 29 -28 29 -35 0 -20 60 -82 119 -123 100 -68 101 -70 111 -216 30 -422 44
-1151 60 -3109 10 -1226 17 -1579 40 -1995 14 -256 16 -270 44 -270 12 0 38
11 57 25 34 22 37 29 43 87 21 210 39 722 56 1593 23 1142 30 1607 35 2380 5
743 16 1202 31 1298 3 21 11 37 19 37 7 0 15 7 19 15 3 8 17 15 30 15 43 0 94
57 218 247 66 101 124 183 129 183 5 0 9 -10 9 -23 0 -28 26 -67 45 -67 7 0
21 22 30 49 10 31 41 80 81 128 181 217 261 359 499 890 35 78 73 159 83 180
23 43 152 157 250 221 78 50 169 138 482 467 264 278 356 385 510 591 61 82
163 217 228 299 64 83 144 191 177 240 137 201 274 498 380 822 184 565 218
674 264 853 83 322 137 628 177 1000 25 234 32 1463 10 1637 -9 67 -16 148
-16 180 -1 236 -191 924 -375 1358 -39 94 -80 199 -90 235 -52 195 -178 436
-288 555 -11 11 -59 82 -108 158 -183 284 -360 500 -633 772 -295 294 -554
504 -926 750 -1121 741 -2599 1274 -4590 1655 -113 22 -250 49 -305 60 -55 11
-152 24 -216 29 -82 5 -125 12 -143 24 -20 13 -49 17 -129 17 -73 0 -185 13
-383 44 -381 60 -447 69 -939 127 -503 59 -793 108 -1295 219 -260 58 -693
165 -790 195 -140 45 -434 164 -492 200 -29 18 -80 47 -113 64 -225 112 -374
274 -431 466 -27 90 -25 256 4 367 25 98 68 207 89 224 7 6 13 14 13 18 0 12
93 125 109 132 9 4 106 10 216 14 200 8 265 19 335 55 63 33 256 107 354 136
l99 29 46 -27 c25 -14 55 -36 67 -48 12 -12 50 -32 85 -45 43 -16 105 -56 188
-119 199 -151 320 -216 489 -262 108 -29 363 -37 482 -15 133 24 231 46 250
56 13 7 43 -18 148 -123 72 -73 163 -172 201 -222 171 -219 286 -373 362 -487
132 -197 285 -338 450 -412 82 -37 241 -60 368 -53 203 12 534 100 701 185
174 90 211 100 439 128 113 13 247 31 296 39 188 32 806 158 940 192 173 43
219 41 401 -17 133 -43 158 -55 357 -172 168 -99 257 -130 377 -131 115 0 178
12 314 64 253 95 510 91 871 -14 214 -62 429 -88 556 -67 152 25 282 77 456
182 45 27 158 85 250 130 92 45 202 101 243 124 88 50 215 88 266 78 20 -4 40
-2 47 5 10 8 19 7 33 -4 29 -22 47 -18 84 20 19 19 39 35 45 35 34 0 219 155
298 249 88 105 169 328 186 514 14 151 -12 315 -99 612 -16 55 -41 150 -55
210 -15 61 -61 200 -104 310 -43 110 -91 236 -107 280 -71 201 -331 679 -528
970 -493 730 -1225 1478 -1991 2037 -918 670 -2157 1268 -3318 1602 -1142 329
-2429 490 -3877 484 -195 0 -438 -5 -540 -9z"/>
</g>
</svg>
